<svg width="14" height="14" viewBox="0 0 14 14" fill="none" xmlns="http://www.w3.org/2000/svg">
<path d="M6.99967 13.6663C3.31767 13.6663 0.333008 10.6817 0.333008 6.99967C0.333008 3.31767 3.31767 0.333008 6.99967 0.333008C10.6817 0.333008 13.6663 3.31767 13.6663 6.99967C13.6663 10.6817 10.6817 13.6663 6.99967 13.6663ZM6.99967 12.333C8.41416 12.333 9.77072 11.7711 10.7709 10.7709C11.7711 9.77072 12.333 8.41416 12.333 6.99967C12.333 5.58519 11.7711 4.22863 10.7709 3.22844C9.77072 2.22824 8.41416 1.66634 6.99967 1.66634C5.58519 1.66634 4.22863 2.22824 3.22844 3.22844C2.22824 4.22863 1.66634 5.58519 1.66634 6.99967C1.66634 8.41416 2.22824 9.77072 3.22844 10.7709C4.22863 11.7711 5.58519 12.333 6.99967 12.333ZM7.66634 6.99967H10.333V8.33301H6.33301V3.66634H7.66634V6.99967Z" fill="#2978B8"/>
</svg>
