<svg width="14" height="14" viewBox="0 0 14 14" fill="none" xmlns="http://www.w3.org/2000/svg">
<path d="M1.22524 10.3332C0.943423 9.84587 0.724352 9.32485 0.573242 8.78255C0.902114 8.61528 1.17831 8.3603 1.37126 8.04581C1.56422 7.73132 1.66642 7.36959 1.66656 7.00062C1.66669 6.63166 1.56477 6.26985 1.37204 5.95522C1.17932 5.64058 0.903322 5.3854 0.574576 5.21788C0.875933 4.12821 1.44973 3.13318 2.24191 2.32655C2.5513 2.5277 2.91032 2.63932 3.27923 2.64907C3.64813 2.65881 4.01254 2.5663 4.33213 2.38177C4.65171 2.19724 4.91401 1.92788 5.08999 1.60351C5.26598 1.27914 5.34878 0.912399 5.32924 0.543882C6.42398 0.260963 7.57273 0.261422 8.66724 0.545215C8.64788 0.913725 8.73084 1.28041 8.90696 1.60469C9.08308 1.92897 9.34548 2.1982 9.66513 2.38259C9.98477 2.56698 10.3492 2.65934 10.7181 2.64945C11.087 2.63956 11.4459 2.5278 11.7552 2.32655C12.1412 2.71988 12.4839 3.16722 12.7719 3.66655C13.0606 4.16588 13.2766 4.68655 13.4239 5.21722C13.095 5.38448 12.8188 5.63946 12.6259 5.95395C12.4329 6.26844 12.3307 6.63018 12.3306 6.99914C12.3305 7.3681 12.4324 7.72992 12.6251 8.04455C12.8178 8.35918 13.0938 8.61437 13.4226 8.78188C13.1212 9.87156 12.5474 10.8666 11.7552 11.6732C11.4458 11.4721 11.0868 11.3604 10.7179 11.3507C10.349 11.3409 9.98461 11.4335 9.66502 11.618C9.34544 11.8025 9.08314 12.0719 8.90716 12.3963C8.73118 12.7206 8.64837 13.0874 8.66791 13.4559C7.57317 13.7388 6.42442 13.7383 5.32991 13.4545C5.34927 13.086 5.26631 12.7194 5.09019 12.3951C4.91407 12.0708 4.65167 11.8016 4.33202 11.6172C4.01238 11.4328 3.64795 11.3404 3.27906 11.3503C2.91017 11.3602 2.55122 11.472 2.24191 11.6732C1.8479 11.2712 1.50631 10.8209 1.22524 10.3332ZM4.99858 10.4639C5.70899 10.8736 6.24314 11.5312 6.49858 12.3105C6.83124 12.3419 7.16524 12.3425 7.49791 12.3112C7.75351 11.5318 8.28791 10.8742 8.99858 10.4645C9.70872 10.0537 10.5456 9.91954 11.3486 10.0879C11.5419 9.81588 11.7086 9.52588 11.8472 9.22255C11.3002 8.61151 10.998 7.82002 10.9986 6.99988C10.9986 6.15988 11.3119 5.37522 11.8472 4.77722C11.7076 4.47398 11.5402 4.1843 11.3472 3.91188C10.5448 4.08009 9.70844 3.9462 8.99858 3.53588C8.28816 3.12613 7.75401 2.46854 7.49858 1.68922C7.16591 1.65788 6.83191 1.65722 6.49924 1.68855C6.24364 2.46798 5.70924 3.12559 4.99858 3.53522C4.28843 3.94609 3.45156 4.08023 2.64858 3.91188C2.45562 4.18407 2.28866 4.47379 2.14991 4.77722C2.69696 5.38826 2.99916 6.17974 2.99858 6.99988C2.99858 7.83988 2.68524 8.62455 2.14991 9.22255C2.28956 9.52578 2.45694 9.81546 2.64991 10.0879C3.45239 9.91968 4.28871 10.0536 4.99858 10.4639ZM6.99858 8.99988C6.46814 8.99988 5.95943 8.78917 5.58436 8.4141C5.20929 8.03902 4.99858 7.53031 4.99858 6.99988C4.99858 6.46945 5.20929 5.96074 5.58436 5.58567C5.95943 5.2106 6.46814 4.99988 6.99858 4.99988C7.52901 4.99988 8.03772 5.2106 8.41279 5.58567C8.78786 5.96074 8.99858 6.46945 8.99858 6.99988C8.99858 7.53031 8.78786 8.03902 8.41279 8.4141C8.03772 8.78917 7.52901 8.99988 6.99858 8.99988ZM6.99858 7.66655C7.17539 7.66655 7.34495 7.59631 7.46998 7.47129C7.595 7.34626 7.66524 7.17669 7.66524 6.99988C7.66524 6.82307 7.595 6.6535 7.46998 6.52848C7.34495 6.40345 7.17539 6.33322 6.99858 6.33322C6.82176 6.33322 6.65219 6.40345 6.52717 6.52848C6.40215 6.6535 6.33191 6.82307 6.33191 6.99988C6.33191 7.17669 6.40215 7.34626 6.52717 7.47129C6.65219 7.59631 6.82176 7.66655 6.99858 7.66655Z" fill="#38999B"/>
</svg>
